:SAMPLES-PER-SECOND 24
:FULLY-SPECIFIED
:DEGREES
230
root  4.90196 42.611 48.0235 -59.6748 43.8091 -59.1242
RightUpLeg  -77.105 -22.8553 -13.9037
RightLeg  25.2302 -8.21851 -4.43277
RightFoot  -15.2132 0.284047 11.4036
RightToes  -2.08645e-008 3.77894e-005 6.81332e-007
Spine  32.02 -7.54703 -1.11055
Spine1  -6.54832 -11.2891 32.8345
HEad  -18.9109 -3.75333 6.73164
LeftShoulder1  3.60395 -9.21351 -22.0233
LeftArm  22.9385 -57.399 -44.9414
LeftForeArm  61.9574 -77.6614 -50.8848
LeftHand  -0.511537 -5.51444 5.76273
RightShoulder  2.77463 5.36879 25.2072
RightArm  -21.9217 -21.0482 3.77676
RightForeArm  26.5204 67.5336 25.5638
RightHand  -1.58427 3.58791 -20.5299
LeftUpLeg  -0.0861359 16.3819 24.7782
LeftLeg  3.58487 31.5471 1.67113
LeftFoot  14.5441 -2.13239 9.11619
LeftToes  1.24767e-006 1.47042e-008 1.32732e-009
231
root  5.07273 41.3475 48.7606 -68.5098 47.062 -63.8801
RightUpLeg  -73.7524 -19.46 -9.2734
RightLeg  27.8486 -5.25682 -3.23219
RightFoot  -16.0872 0.4224 12.7886
RightToes  -2.08645e-008 3.77894e-005 6.81332e-007
Spine  33.1671 -7.73614 -3.83247
Spine1  -4.90768 -12.7627 32.4051
HEad  -19.4747 2.08442 4.30614
LeftShoulder1  4.11532 -9.78913 -24.7836
LeftArm  27.7972 -54.4921 -51.3469
LeftForeArm  55.2858 -75.9145 -41.7173
LeftHand  -0.515687 -5.26607 5.9258
RightShoulder  2.86439 5.36905 26.2639
RightArm  -19.2676 -27.9824 3.89206
RightForeArm  32.3172 70.7936 30.6022
RightHand  -1.53978 3.88243 -19.3703
LeftUpLeg  1.92612 14.954 23.5453
LeftLeg  9.24551 27.9979 5.41983
LeftFoot  1.28646 -1.04115 9.31606
LeftToes  1.24767e-006 1.47042e-008 1.32732e-009
232
root  5.26933 40.4467 49.4726 -75.7407 52.3635 -70.3708
RightUpLeg  -70.3882 -15.646 -6.54528
RightLeg  31.5789 -7.16317 -4.94993
RightFoot  -17.3191 0.444566 10.7354
RightToes  -2.08645e-008 3.77894e-005 6.81332e-007
Spine  30.6582 -7.73976 -7.06314
Spine1  -2.62707 -14.2255 32.0681
HEad  -22.7058 9.97968 -0.206998
LeftShoulder1  5.15356 -10.9936 -29.5018
LeftArm  26.518 -42.6226 -50.5222
LeftForeArm  69.9938 -78.6733 -57.3396
LeftHand  -0.533353 -5.85677 5.82616
RightShoulder  3.06603 5.4341 28.3564
RightArm  -19.5288 -35.1723 7.67189
RightForeArm  34.0122 70.4854 29.6436
RightHand  -1.58795 4.7314 -18.346
LeftUpLeg  -1.30883 6.7637 19.2373
LeftLeg  18.5241 26.8256 10.265
LeftFoot  -5.41809 -0.421503 8.84328
LeftToes  1.24767e-006 1.47042e-008 1.32732e-009
233
root  5.68846 40.1298 49.9748 -82.314 56.3679 -76.6411
RightUpLeg  -63.1613 -9.63797 -2.4779
RightLeg  30.7975 -6.45437 -4.3856
RightFoot  -18.1562 0.511036 10.6136
RightToes  -2.08645e-008 3.77894e-005 6.81332e-007
Spine  27.4856 -7.69831 -6.82956
Spine1  -0.272628 -14.1562 28.9317
HEad  -27.4727 18.4132 -7.93597
LeftShoulder1  6.58323 -12.4841 -35.1425
LeftArm  22.6266 -23.7422 -43.6376
LeftForeArm  97.1788 -80.3944 -86.8602
LeftHand  -0.522807 -5.50522 5.88708
RightShoulder  3.38426 5.73944 30.7134
RightArm  -22.4114 -41.1071 15.2599
RightForeArm  30.3392 67.0372 24.2578
RightHand  -1.53887 4.89072 -17.5335
LeftUpLeg  -3.05737 1.57185 15.8707
LeftLeg  24.0824 27.3769 12.9194
LeftFoot  -7.16687 -0.271405 8.55877
LeftToes  1.24767e-006 1.47042e-008 1.32732e-009
234
root  6.42939 40.2437 50.3819 -91.9053 59.9052 -85.7945
RightUpLeg  -51.9008 -0.967465 -0.757191
RightLeg  25.7214 -4.13894 -2.40636
RightFoot  -18.4714 0.69107 13.0542
RightToes  -2.08645e-008 3.77894e-005 6.81332e-007
Spine  24.7744 -7.46204 -6.74548
Spine1  0.95239 -13.3697 26.0696
HEad  -32.4995 26.9029 -16.8004
LeftShoulder1  7.63893 -13.4183 -38.9898
LeftArm  19.1774 -3.85162 -36.7534
LeftForeArm  94.4698 -80.3327 -84.3405
LeftHand  -0.537293 -4.5642 6.55736
RightShoulder  3.72052 6.16523 32.5942
RightArm  -22.0755 -44.4687 21.2314
RightForeArm  27.6024 64.9228 21.8223
RightHand  -1.56514 5.32308 -17.137
LeftUpLeg  -2.07289 -0.343802 13.2588
LeftLeg  24.1913 24.8759 11.9801
LeftFoot  -7.52788 -0.134324 5.40329
LeftToes  1.24767e-006 1.47042e-008 1.32732e-009
